<?xml version="1.0" encoding="utf-8"?>
<svg viewBox="0 0 500 500" xmlns="http://www.w3.org/2000/svg">
  <defs/>
  <ellipse fill="#20263A" cx="250" cy="250" rx="240" ry="240"/>
  <path fill="#727272" d="M 160.114 260.641 C 160.114 393.19 382.548 490 250 490 C 117.452 490 10 382.548 10 250 C 10 117.452 117.452 10 250 10 C 382.548 10 160.114 128.093 160.114 260.641 Z" transform="matrix(0.906308, -0.422618, 0.422618, 0.906308, -0.000005, -0.000003) translate(-129, 82.25)"/>
  <path fill="#727272" d="M 375.25 97.216 C 384.333 106.871 381.913 123.9 369.845 135.253 L 304.295 196.923 C 274.358 222.168 241.763 204.794 242 170 L 242 80 C 242 63.431 252.746 50 266 50 C 279.255 50.001 290 63.431 290 80 L 290 144.469 L 336.955 100.293 C 349.022 88.94 366.167 87.562 375.25 97.216 Z"/>
</svg>